# xmcd
#
# Track frame offsets:
# 150
# 19970
# 31685
# 56072
# 69065
# 96082
# 117027
# 136595
# 171197
# 192087
#
# Disc length: 2934 seconds
#
#
# Revision: 0
# Processed by: cddbd v1.5.1PL0 Copyright (c) Steve Scherf et al.
# Submitted via: FreeRIP 2.90 
#
DISCID=750b740a
DTITLE=BLUESBAND - SOMEBODY WRONG 
DYEAR=1993
DGENRE=Blues
TTITLE0=I´m Ready  (W. Dixon)
TTITLE1=I Want To Be Loved  (W. Dixon)
TTITLE2=Cheap Sunglasses (Gibbons, Hill, Beard)
TTITLE3=Boom, Boom (W. Jacobs)
TTITLE4=Come On Into My Kitchen (R. Johnson)
TTITLE5=Ooh Wee Baby (W. Dixon)
TTITLE6=I Don´t Know (W. Mabon)
TTITLE7=How Blue Can You Get (Trad. Arr.)
TTITLE8=Call Me The Breeze (J.J. Cale)
TTITLE9=Mojo Working (M. Morganfield)
EXTD=
EXTT0=Live im "Malteserkeller" Achen, 17.11.92
EXTT1=Live im "Malteserkeller" Achen, 17.11.92
EXTT2=Live in "Bluesnacht im Jakobshof", Achen, 29.01.93
EXTT3=Live im "Malteserkeller" Achen, 17.11.92
EXTT4=Live in "Bluesnacht im Jakobshof", Achen, 29.01.93
EXTT5=Live im "Malteserkeller" Achen, 17.11.92
EXTT6=Live im "Malteserkeller" Achen, 17.11.92
EXTT7=Live in "Bluesnacht im Jakobshof", Achen, 29.01.93
EXTT8=Live in "Bluesnacht im Jakobshof", Achen, 29.01.93
EXTT9=Live im "Malteserkeller" Achen, 17.11.92
PLAYORDER=
